<svg width="106" height="32" viewBox="0 0 106 32" fill="none" xmlns="http://www.w3.org/2000/svg">
<path d="M72.3987 15.3387V23.328C72.0767 23.6932 71.5807 24.0851 70.9106 24.5037C70.2493 24.9134 69.4138 25.2652 68.4044 25.5591C67.3949 25.853 66.2071 26 64.8408 26C63.579 26 62.4347 25.7951 61.4078 25.3854C60.3809 24.9668 59.4977 24.3567 58.758 23.5551C58.027 22.7446 57.4613 21.756 57.061 20.5892C56.6694 19.4135 56.4736 18.0686 56.4736 16.5544V15.4723C56.4736 13.9581 56.6738 12.6132 57.0741 11.4375C57.4744 10.2619 58.0357 9.27321 58.758 8.47161C59.489 7.6611 60.3461 7.04654 61.3295 6.62792C62.3215 6.20931 63.4093 6 64.5928 6C66.342 6 67.7648 6.28501 68.8612 6.85504C69.9577 7.41617 70.7888 8.1955 71.3544 9.19305C71.9201 10.1817 72.2638 11.3262 72.3856 12.6266H67.9867C67.8997 11.9853 67.7343 11.442 67.4906 10.9967C67.2557 10.5424 66.9163 10.1995 66.4725 9.96794C66.0287 9.72745 65.4543 9.60721 64.7494 9.60721C64.2012 9.60721 63.7008 9.72745 63.2483 9.96794C62.8045 10.2084 62.426 10.5736 62.1127 11.0635C61.7994 11.5444 61.5557 12.1501 61.3817 12.8804C61.2163 13.6108 61.1337 14.4658 61.1337 15.4456V16.5544C61.1337 17.5253 61.212 18.3759 61.3686 19.1062C61.534 19.8366 61.7776 20.4467 62.0996 20.9365C62.4303 21.4175 62.848 21.7827 63.3527 22.0321C63.8662 22.2725 64.471 22.3928 65.1672 22.3928C65.6545 22.3928 66.0722 22.3527 66.4203 22.2725C66.7684 22.1835 67.0555 22.0766 67.2818 21.9519C67.5168 21.8183 67.6951 21.6936 67.817 21.5778V18.5585H64.632V15.3387H72.3987Z" fill="#344455"/>
<path d="M88.2182 22.1256V25.7328H78.0888V22.1256H88.2182ZM79.7205 6.28056V25.7328H75.1388V6.28056H79.7205ZM86.9129 14.0027V17.4896H78.0888V14.0027H86.9129ZM88.2574 6.28056V9.90114H78.0888V6.28056H88.2574Z" fill="#344455"/>
<path d="M90.1621 6.28056H97.6416C99.1036 6.28056 100.374 6.50323 101.453 6.94856C102.532 7.3939 103.363 8.05299 103.946 8.92585C104.538 9.79871 104.834 10.8764 104.834 12.159C104.834 13.2723 104.664 14.2031 104.325 14.9512C103.986 15.6994 103.511 16.3184 102.902 16.8083C102.302 17.2892 101.601 17.6856 100.801 17.9973L99.2994 18.8657H93.0208L92.9946 15.2452H97.6416C98.2247 15.2452 98.7077 15.1383 99.0906 14.9245C99.4734 14.7108 99.7606 14.4079 99.9521 14.016C100.152 13.6152 100.252 13.1387 100.252 12.5865C100.252 12.0254 100.152 11.5444 99.9521 11.1436C99.7519 10.7428 99.456 10.4355 99.0644 10.2218C98.6815 10.008 98.2073 9.90114 97.6416 9.90114H94.7438V25.7328H90.1621V6.28056ZM100.566 25.7328L96.3624 17.1289L101.218 17.1022L105.474 25.5324V25.7328H100.566Z" fill="#344455"/>
<path fill-rule="evenodd" clip-rule="evenodd" d="M6.97366 0C3.12222 0 0 2.86538 0 6.4V25.6C0 29.1346 3.12221 32 6.97366 32H51.3503C53.9628 32 55.4878 28.7245 54.3408 26.3774C51.1483 19.8447 51.1483 12.1553 54.3408 5.62265C55.4878 3.27551 53.9628 0 51.3503 0H6.97366ZM35.6616 15.1003V15.8997C35.6616 16.8498 35.5537 17.7014 35.338 18.4545C35.1223 19.2077 34.8118 19.8478 34.4067 20.375C34.0015 20.9022 33.5148 21.3048 32.9466 21.5829C32.3836 21.861 31.7522 22 31.0524 22C30.3736 22 29.7501 21.861 29.1819 21.5829C28.6189 21.3048 28.1296 20.9022 27.7139 20.375C27.3035 19.8478 26.9852 19.2077 26.7589 18.4545C26.5327 17.7014 26.4195 16.8498 26.4195 15.8997V15.1003C26.4195 14.1502 26.53 13.3015 26.751 12.5541C26.9773 11.801 27.2956 11.1609 27.706 10.6337C28.1164 10.1007 28.6031 9.69519 29.1661 9.41711C29.7344 9.13904 30.3579 9 31.0366 9C31.7364 9 32.3678 9.13904 32.9308 9.41711C33.499 9.69519 33.9857 10.1007 34.3909 10.6337C34.8013 11.1609 35.1144 11.801 35.3301 12.5541C35.5511 13.3015 35.6616 14.1502 35.6616 15.1003ZM34.1541 15.8997V15.0829C34.1541 14.3298 34.0831 13.6635 33.941 13.0842C33.8042 12.5049 33.6016 12.0183 33.3333 11.6243C33.065 11.2304 32.7361 10.932 32.3468 10.7293C31.9627 10.5265 31.5259 10.4251 31.0366 10.4251C30.5631 10.4251 30.1342 10.5265 29.7501 10.7293C29.3713 10.932 29.0451 11.2304 28.7715 11.6243C28.5031 12.0183 28.2953 12.5049 28.148 13.0842C28.0007 13.6635 27.927 14.3298 27.927 15.0829V15.8997C27.927 16.6586 28.0007 17.3307 28.148 17.9158C28.2953 18.4951 28.5058 18.9846 28.7794 19.3844C29.0582 19.7783 29.3871 20.0766 29.7659 20.2794C30.15 20.4822 30.5788 20.5836 31.0524 20.5836C31.547 20.5836 31.9863 20.4822 32.3704 20.2794C32.7545 20.0766 33.0781 19.7783 33.3412 19.3844C33.6095 18.9846 33.8121 18.4951 33.9489 17.9158C34.0857 17.3307 34.1541 16.6586 34.1541 15.8997ZM9.99675 15.9084H10.3993H12.5697C13.0853 15.9084 13.5062 16.0011 13.8325 16.1865C14.1587 16.3719 14.3981 16.6355 14.5507 16.9773C14.7033 17.3191 14.7796 17.7246 14.7796 18.1938C14.7796 18.6573 14.6901 19.0599 14.5112 19.4017C14.3323 19.7377 14.0719 19.9984 13.7299 20.1838C13.3931 20.3692 12.9827 20.4619 12.4986 20.4619H9.99675V15.9084ZM9.99675 14.5615V10.5468H12.2382C12.7433 10.5468 13.159 10.6163 13.4852 10.7553C13.8167 10.8886 14.0613 11.1029 14.2192 11.3984C14.3823 11.6881 14.4639 12.0646 14.4639 12.5281C14.4639 12.951 14.3718 13.316 14.1876 13.623C14.0087 13.9242 13.7562 14.156 13.43 14.3182C13.1037 14.4804 12.7223 14.5615 12.2856 14.5615H10.4151H9.99675ZM14.2993 15.1602C14.4083 15.1079 14.5131 15.0503 14.6138 14.9873C15.0453 14.7208 15.382 14.379 15.624 13.9619C15.8661 13.539 15.9871 13.0668 15.9871 12.5455C15.9871 11.9545 15.9029 11.4476 15.7345 11.0247C15.5662 10.6018 15.3189 10.2542 14.9927 9.98195C14.6717 9.70388 14.2797 9.50111 13.8167 9.37366C13.3537 9.24042 12.8275 9.1738 12.2382 9.1738H8.47351V21.8262H9.05755H9.99675H12.4986C13.2668 21.8262 13.9351 21.6872 14.5033 21.4091C15.0716 21.1252 15.5109 20.7139 15.8214 20.1751C16.1371 19.6306 16.2949 18.9643 16.2949 18.1765C16.2949 17.6319 16.1923 17.1337 15.9871 16.6818C15.7872 16.2299 15.4951 15.8592 15.111 15.5695C14.8728 15.3863 14.6023 15.2499 14.2993 15.1602ZM25.552 21.8262V20.4619H20.1063V9.1738H18.583V21.8262H19.8064H20.1063H25.552ZM46.4735 20.1578V15.5261H42.2984V16.8817H44.9582V19.7146C44.8582 19.842 44.7135 19.9782 44.5241 20.123C44.3347 20.262 44.0716 20.3837 43.7348 20.488C43.3981 20.5865 42.9588 20.6357 42.4168 20.6357C41.9275 20.6357 41.4802 20.5314 41.0751 20.3229C40.6752 20.1143 40.3306 19.8102 40.0412 19.4104C39.7518 19.0049 39.5282 18.5154 39.3703 17.9418C39.2178 17.3683 39.1415 16.7166 39.1415 15.9866V14.9873C39.1415 14.2747 39.202 13.6346 39.323 13.0668C39.4493 12.4991 39.6387 12.0154 39.8912 11.6156C40.1438 11.2159 40.4648 10.9089 40.8541 10.6945C41.2435 10.4802 41.7039 10.373 42.2353 10.373C42.8246 10.373 43.306 10.4889 43.6796 10.7206C44.0532 10.9465 44.3399 11.2478 44.5399 11.6243C44.7451 12.0009 44.8819 12.418 44.9503 12.8757H46.4735C46.3788 12.1283 46.1631 11.4621 45.8263 10.877C45.4949 10.2919 45.0318 9.83422 44.4373 9.50401C43.848 9.168 43.114 9 42.2353 9C41.4934 9 40.8357 9.13614 40.2622 9.40842C39.6887 9.67491 39.2046 10.0689 38.81 10.5902C38.4154 11.1058 38.1154 11.7344 37.9102 12.4759C37.7103 13.2175 37.6103 14.0604 37.6103 15.0047V15.9866C37.6103 16.9309 37.7261 17.7767 37.9576 18.5241C38.1944 19.2656 38.5258 19.8971 38.952 20.4184C39.3835 20.934 39.8912 21.328 40.4753 21.6003C41.0646 21.8668 41.7091 22 42.4089 22C43.2666 22 43.9664 21.8957 44.5083 21.6872C45.0555 21.4728 45.4843 21.2237 45.7948 20.9398C46.1052 20.6502 46.3315 20.3895 46.4735 20.1578Z" fill="#66B2C2"/>
</svg>
